<svg xmlns="http://www.w3.org/2000/svg" xmlns:xlink="http://www.w3.org/1999/xlink" width="207" zoomAndPan="magnify" viewBox="0 0 155.25 36.750001" height="49" preserveAspectRatio="xMidYMid meet" version="1.0"><defs><g/><clipPath id="b1010c9e81"><path d="M 0.152344 0 L 154.351562 0 L 154.351562 36.5 L 0.152344 36.5 Z M 0.152344 0 " clip-rule="nonzero"/></clipPath><clipPath id="60d57a2f39"><path d="M 0.152344 2 L 35 2 L 35 36.5 L 0.152344 36.5 Z M 0.152344 2 " clip-rule="nonzero"/></clipPath><clipPath id="7a40c49917"><path d="M 41.53125 6.667969 L 83.078125 6.667969 L 83.078125 25.066406 L 41.53125 25.066406 Z M 41.53125 6.667969 " clip-rule="nonzero"/></clipPath><clipPath id="d65b3bc604"><path d="M 42.277344 6.667969 L 82.28125 6.667969 C 82.691406 6.667969 83.027344 7 83.027344 7.410156 L 83.027344 24.320312 C 83.027344 24.734375 82.691406 25.066406 82.28125 25.066406 L 42.277344 25.066406 C 41.867188 25.066406 41.53125 24.734375 41.53125 24.320312 L 41.53125 7.410156 C 41.53125 7 41.867188 6.667969 42.277344 6.667969 Z M 42.277344 6.667969 " clip-rule="nonzero"/></clipPath><clipPath id="263db2e0e7"><path d="M 0.53125 0.667969 L 42.078125 0.667969 L 42.078125 19.066406 L 0.53125 19.066406 Z M 0.53125 0.667969 " clip-rule="nonzero"/></clipPath><clipPath id="ae300c66fb"><path d="M 1.277344 0.667969 L 41.28125 0.667969 C 41.691406 0.667969 42.027344 1 42.027344 1.410156 L 42.027344 18.320312 C 42.027344 18.734375 41.691406 19.066406 41.28125 19.066406 L 1.277344 19.066406 C 0.867188 19.066406 0.53125 18.734375 0.53125 18.320312 L 0.53125 1.410156 C 0.53125 1 0.867188 0.667969 1.277344 0.667969 Z M 1.277344 0.667969 " clip-rule="nonzero"/></clipPath><clipPath id="cf2e02f42c"><rect x="0" width="43" y="0" height="20"/></clipPath><clipPath id="3d18b047af"><path d="M 75.800781 6.667969 L 117.34375 6.667969 L 117.34375 25.066406 L 75.800781 25.066406 Z M 75.800781 6.667969 " clip-rule="nonzero"/></clipPath><clipPath id="beb42c57d1"><path d="M 76.542969 6.667969 L 116.546875 6.667969 C 116.960938 6.667969 117.292969 7 117.292969 7.410156 L 117.292969 24.320312 C 117.292969 24.734375 116.960938 25.066406 116.546875 25.066406 L 76.542969 25.066406 C 76.132812 25.066406 75.800781 24.734375 75.800781 24.320312 L 75.800781 7.410156 C 75.800781 7 76.132812 6.667969 76.542969 6.667969 Z M 76.542969 6.667969 " clip-rule="nonzero"/></clipPath><clipPath id="38ac607fa1"><path d="M 0.800781 0.667969 L 42.34375 0.667969 L 42.34375 19.066406 L 0.800781 19.066406 Z M 0.800781 0.667969 " clip-rule="nonzero"/></clipPath><clipPath id="70e1d936f0"><path d="M 1.542969 0.667969 L 41.546875 0.667969 C 41.960938 0.667969 42.292969 1 42.292969 1.410156 L 42.292969 18.320312 C 42.292969 18.734375 41.960938 19.066406 41.546875 19.066406 L 1.542969 19.066406 C 1.132812 19.066406 0.800781 18.734375 0.800781 18.320312 L 0.800781 1.410156 C 0.800781 1 1.132812 0.667969 1.542969 0.667969 Z M 1.542969 0.667969 " clip-rule="nonzero"/></clipPath><clipPath id="3eb684a9b7"><rect x="0" width="43" y="0" height="20"/></clipPath><clipPath id="41f6cf3935"><path d="M 112.859375 6.667969 L 154.351562 6.667969 L 154.351562 25.066406 L 112.859375 25.066406 Z M 112.859375 6.667969 " clip-rule="nonzero"/></clipPath><clipPath id="6db74dbfc4"><path d="M 113.605469 6.667969 L 153.609375 6.667969 C 154.019531 6.667969 154.351562 7 154.351562 7.410156 L 154.351562 24.320312 C 154.351562 24.734375 154.019531 25.066406 153.609375 25.066406 L 113.605469 25.066406 C 113.195312 25.066406 112.859375 24.734375 112.859375 24.320312 L 112.859375 7.410156 C 112.859375 7 113.195312 6.667969 113.605469 6.667969 Z M 113.605469 6.667969 " clip-rule="nonzero"/></clipPath><clipPath id="d9cb5624a6"><path d="M 0.859375 0.667969 L 42.351562 0.667969 L 42.351562 19.066406 L 0.859375 19.066406 Z M 0.859375 0.667969 " clip-rule="nonzero"/></clipPath><clipPath id="37de93201e"><path d="M 1.605469 0.667969 L 41.609375 0.667969 C 42.019531 0.667969 42.351562 1 42.351562 1.410156 L 42.351562 18.320312 C 42.351562 18.734375 42.019531 19.066406 41.609375 19.066406 L 1.605469 19.066406 C 1.195312 19.066406 0.859375 18.734375 0.859375 18.320312 L 0.859375 1.410156 C 0.859375 1 1.195312 0.667969 1.605469 0.667969 Z M 1.605469 0.667969 " clip-rule="nonzero"/></clipPath><clipPath id="f2ca065ed0"><rect x="0" width="43" y="0" height="20"/></clipPath><clipPath id="d9ed08e47b"><path d="M 117.292969 14.453125 L 154.351562 14.453125 L 154.351562 32.851562 L 117.292969 32.851562 Z M 117.292969 14.453125 " clip-rule="nonzero"/></clipPath><clipPath id="fb366e5993"><path d="M 118.039062 14.453125 L 158.039062 14.453125 C 158.453125 14.453125 158.785156 14.785156 158.785156 15.195312 L 158.785156 32.105469 C 158.785156 32.519531 158.453125 32.851562 158.039062 32.851562 L 118.039062 32.851562 C 117.625 32.851562 117.292969 32.519531 117.292969 32.105469 L 117.292969 15.195312 C 117.292969 14.785156 117.625 14.453125 118.039062 14.453125 Z M 118.039062 14.453125 " clip-rule="nonzero"/></clipPath><clipPath id="a9df35cf2e"><path d="M 0.292969 0.453125 L 37.351562 0.453125 L 37.351562 18.851562 L 0.292969 18.851562 Z M 0.292969 0.453125 " clip-rule="nonzero"/></clipPath><clipPath id="61167f2a55"><path d="M 1.039062 0.453125 L 41.039062 0.453125 C 41.453125 0.453125 41.785156 0.785156 41.785156 1.195312 L 41.785156 18.105469 C 41.785156 18.519531 41.453125 18.851562 41.039062 18.851562 L 1.039062 18.851562 C 0.625 18.851562 0.292969 18.519531 0.292969 18.105469 L 0.292969 1.195312 C 0.292969 0.785156 0.625 0.453125 1.039062 0.453125 Z M 1.039062 0.453125 " clip-rule="nonzero"/></clipPath><clipPath id="d90ed90284"><rect x="0" width="38" y="0" height="19"/></clipPath><clipPath id="5d795f94a3"><path d="M 41.53125 27.375 L 144.707031 27.375 L 144.707031 36.5 L 41.53125 36.5 Z M 41.53125 27.375 " clip-rule="nonzero"/></clipPath><clipPath id="db406fd09c"><path d="M 0.53125 0.375 L 103.707031 0.375 L 103.707031 9.5 L 0.53125 9.5 Z M 0.53125 0.375 " clip-rule="nonzero"/></clipPath><clipPath id="ddaebaac62"><rect x="0" width="104" y="0" height="10"/></clipPath></defs><g clip-path="url(#b1010c9e81)"><path fill="#ffffff" d="M 0.152344 0 L 154.351562 0 L 154.351562 36.5 L 0.152344 36.5 Z M 0.152344 0 " fill-opacity="1" fill-rule="nonzero"/><path fill="#ffffff" d="M 0.152344 0 L 154.351562 0 L 154.351562 36.5 L 0.152344 36.5 Z M 0.152344 0 " fill-opacity="1" fill-rule="nonzero"/></g><g clip-path="url(#60d57a2f39)"><path fill="#5f6fff" d="M 17.285156 2.234375 C 26.75 2.234375 34.417969 9.90625 34.417969 19.367188 L 34.417969 31.363281 C 34.417969 32.726562 33.878906 34.03125 32.914062 34.996094 C 31.949219 35.960938 30.640625 36.5 29.277344 36.5 L 18.140625 36.5 L 18.140625 28.984375 C 18.140625 27.269531 18.246094 25.492188 19.144531 24.035156 C 19.789062 22.988281 20.652344 22.09375 21.671875 21.410156 C 22.691406 20.722656 23.847656 20.269531 25.058594 20.070312 L 25.386719 20.015625 C 25.523438 19.96875 25.640625 19.882812 25.722656 19.765625 C 25.808594 19.652344 25.851562 19.511719 25.851562 19.367188 C 25.851562 19.226562 25.808594 19.085938 25.722656 18.96875 C 25.640625 18.851562 25.523438 18.765625 25.386719 18.71875 L 25.058594 18.667969 C 23.289062 18.378906 21.652344 17.539062 20.382812 16.269531 C 19.113281 15 18.277344 13.363281 17.988281 11.59375 L 17.933594 11.265625 C 17.886719 11.128906 17.800781 11.011719 17.683594 10.929688 C 17.566406 10.847656 17.429688 10.800781 17.285156 10.800781 C 17.140625 10.800781 17.003906 10.847656 16.886719 10.929688 C 16.769531 11.011719 16.683594 11.128906 16.636719 11.265625 L 16.582031 11.59375 C 16.386719 12.804688 15.929688 13.960938 15.246094 14.980469 C 14.5625 16.003906 13.664062 16.863281 12.621094 17.507812 C 11.160156 18.40625 9.382812 18.511719 7.667969 18.511719 L 0.171875 18.511719 C 0.621094 9.445312 8.109375 2.234375 17.285156 2.234375 Z M 17.285156 2.234375 " fill-opacity="1" fill-rule="nonzero"/><path fill="#5f6fff" d="M 0.152344 20.226562 L 7.667969 20.226562 C 9.382812 20.226562 11.160156 20.328125 12.621094 21.230469 C 13.761719 21.933594 14.722656 22.894531 15.425781 24.035156 C 16.324219 25.492188 16.429688 27.269531 16.429688 28.984375 L 16.429688 36.5 L 5.292969 36.5 C 3.929688 36.5 2.621094 35.960938 1.65625 34.996094 C 0.695312 34.03125 0.152344 32.726562 0.152344 31.363281 Z M 34.417969 3.949219 C 34.417969 4.402344 34.238281 4.839844 33.917969 5.160156 C 33.597656 5.480469 33.160156 5.660156 32.707031 5.660156 C 32.25 5.660156 31.816406 5.480469 31.492188 5.160156 C 31.171875 4.839844 30.992188 4.402344 30.992188 3.949219 C 30.992188 3.492188 31.171875 3.058594 31.492188 2.738281 C 31.816406 2.414062 32.25 2.234375 32.707031 2.234375 C 33.160156 2.234375 33.597656 2.414062 33.917969 2.738281 C 34.238281 3.058594 34.417969 3.492188 34.417969 3.949219 Z M 34.417969 3.949219 " fill-opacity="1" fill-rule="nonzero"/></g><path fill="#000b6d" d="M 46.714844 17.617188 L 46.714844 14.96875 L 50.597656 14.96875 C 51.105469 14.96875 51.566406 14.867188 51.980469 14.660156 C 52.394531 14.453125 52.71875 14.160156 52.957031 13.777344 C 53.195312 13.382812 53.316406 12.902344 53.316406 12.347656 C 53.316406 11.808594 53.195312 11.339844 52.957031 10.941406 C 52.71875 10.542969 52.394531 10.242188 51.980469 10.035156 C 51.566406 9.828125 51.105469 9.726562 50.597656 9.726562 L 46.714844 9.726562 L 46.714844 7.078125 L 50.933594 7.078125 C 51.996094 7.078125 52.949219 7.292969 53.792969 7.722656 C 54.652344 8.152344 55.328125 8.765625 55.820312 9.558594 C 56.3125 10.335938 56.558594 11.265625 56.558594 12.347656 C 56.558594 13.429688 56.3125 14.367188 55.820312 15.160156 C 55.328125 15.941406 54.652344 16.542969 53.792969 16.972656 C 52.949219 17.402344 51.996094 17.617188 50.933594 17.617188 Z M 44.328125 23.835938 L 44.328125 7.078125 L 47.570312 7.078125 L 47.570312 23.835938 Z M 58.683594 23.835938 L 58.683594 12.324219 L 61.808594 12.324219 L 61.808594 23.835938 Z M 61.808594 17.472656 L 60.59375 16.664062 C 60.734375 15.25 61.148438 14.136719 61.832031 13.324219 C 62.515625 12.5 63.5 12.085938 64.789062 12.085938 C 65.34375 12.085938 65.84375 12.179688 66.289062 12.371094 C 66.734375 12.546875 67.140625 12.839844 67.503906 13.253906 L 65.550781 15.496094 C 65.375 15.304688 65.160156 15.160156 64.90625 15.066406 C 64.667969 14.96875 64.390625 14.921875 64.074219 14.921875 C 63.40625 14.921875 62.855469 15.136719 62.425781 15.566406 C 62.015625 15.980469 61.808594 16.613281 61.808594 17.472656 Z M 73.78125 24.078125 C 72.574219 24.078125 71.5 23.820312 70.5625 23.3125 C 69.625 22.789062 68.878906 22.074219 68.324219 21.167969 C 67.785156 20.261719 67.511719 19.230469 67.511719 18.070312 C 67.511719 16.925781 67.773438 15.90625 68.300781 15.019531 C 68.839844 14.113281 69.570312 13.398438 70.492188 12.871094 C 71.414062 12.332031 72.441406 12.0625 73.566406 12.0625 C 74.679688 12.0625 75.65625 12.316406 76.5 12.824219 C 77.359375 13.316406 78.027344 14 78.503906 14.875 C 78.996094 15.734375 79.242188 16.710938 79.242188 17.808594 C 79.242188 18.011719 79.226562 18.226562 79.195312 18.449219 C 79.175781 18.65625 79.136719 18.894531 79.074219 19.164062 L 69.394531 19.191406 L 69.394531 16.851562 L 77.621094 16.828125 L 76.355469 17.808594 C 76.324219 17.125 76.199219 16.550781 75.976562 16.089844 C 75.769531 15.628906 75.457031 15.28125 75.046875 15.042969 C 74.648438 14.789062 74.15625 14.660156 73.566406 14.660156 C 72.949219 14.660156 72.40625 14.804688 71.945312 15.089844 C 71.484375 15.359375 71.128906 15.75 70.875 16.257812 C 70.636719 16.75 70.515625 17.339844 70.515625 18.019531 C 70.515625 18.71875 70.644531 19.332031 70.898438 19.855469 C 71.167969 20.367188 71.550781 20.761719 72.042969 21.046875 C 72.535156 21.320312 73.105469 21.453125 73.757812 21.453125 C 74.347656 21.453125 74.878906 21.359375 75.355469 21.167969 C 75.832031 20.960938 76.246094 20.660156 76.59375 20.261719 L 78.429688 22.097656 C 77.875 22.75 77.191406 23.242188 76.382812 23.574219 C 75.585938 23.910156 74.71875 24.078125 73.78125 24.078125 Z M 85.128906 24.101562 C 84.476562 24.101562 83.835938 24.011719 83.199219 23.835938 C 82.578125 23.664062 82.007812 23.425781 81.480469 23.121094 C 80.957031 22.804688 80.503906 22.421875 80.125 21.976562 L 81.984375 20.09375 C 82.378906 20.539062 82.839844 20.875 83.367188 21.097656 C 83.890625 21.320312 84.46875 21.429688 85.105469 21.429688 C 85.613281 21.429688 85.996094 21.359375 86.25 21.214844 C 86.519531 21.074219 86.65625 20.859375 86.65625 20.570312 C 86.65625 20.253906 86.511719 20.007812 86.226562 19.832031 C 85.957031 19.660156 85.597656 19.515625 85.152344 19.402344 C 84.707031 19.277344 84.238281 19.140625 83.746094 19 C 83.269531 18.839844 82.808594 18.640625 82.363281 18.402344 C 81.917969 18.148438 81.554688 17.808594 81.269531 17.378906 C 81 16.933594 80.863281 16.359375 80.863281 15.660156 C 80.863281 14.929688 81.039062 14.292969 81.386719 13.753906 C 81.753906 13.214844 82.269531 12.792969 82.9375 12.492188 C 83.605469 12.1875 84.390625 12.039062 85.296875 12.039062 C 86.25 12.039062 87.109375 12.203125 87.871094 12.539062 C 88.648438 12.871094 89.292969 13.371094 89.800781 14.039062 L 87.917969 15.921875 C 87.570312 15.496094 87.171875 15.183594 86.726562 14.992188 C 86.296875 14.804688 85.828125 14.707031 85.320312 14.707031 C 84.859375 14.707031 84.503906 14.78125 84.246094 14.921875 C 84.007812 15.066406 83.890625 15.265625 83.890625 15.519531 C 83.890625 15.804688 84.027344 16.027344 84.296875 16.1875 C 84.582031 16.34375 84.945312 16.488281 85.390625 16.613281 C 85.835938 16.726562 86.296875 16.859375 86.773438 17.019531 C 87.265625 17.164062 87.726562 17.371094 88.15625 17.640625 C 88.601562 17.910156 88.960938 18.269531 89.230469 18.710938 C 89.515625 19.15625 89.660156 19.730469 89.660156 20.429688 C 89.660156 21.558594 89.253906 22.457031 88.441406 23.121094 C 87.632812 23.773438 86.527344 24.101562 85.128906 24.101562 Z M 97.199219 24.078125 C 96.023438 24.078125 94.96875 23.8125 94.027344 23.289062 C 93.089844 22.765625 92.351562 22.050781 91.8125 21.144531 C 91.273438 20.238281 91 19.222656 91 18.09375 C 91 16.949219 91.273438 15.921875 91.8125 15.019531 C 92.351562 14.113281 93.089844 13.398438 94.027344 12.871094 C 94.984375 12.332031 96.039062 12.0625 97.199219 12.0625 C 98.105469 12.0625 98.941406 12.230469 99.703125 12.5625 C 100.464844 12.894531 101.125 13.371094 101.679688 13.992188 L 99.679688 16.019531 C 99.378906 15.683594 99.011719 15.429688 98.582031 15.257812 C 98.167969 15.082031 97.707031 14.992188 97.199219 14.992188 C 96.628906 14.992188 96.109375 15.128906 95.648438 15.398438 C 95.207031 15.652344 94.847656 16.011719 94.578125 16.472656 C 94.324219 16.917969 94.195312 17.449219 94.195312 18.070312 C 94.195312 18.671875 94.324219 19.214844 94.578125 19.691406 C 94.847656 20.152344 95.207031 20.515625 95.648438 20.785156 C 96.109375 21.039062 96.628906 21.167969 97.199219 21.167969 C 97.722656 21.167969 98.191406 21.082031 98.605469 20.90625 C 99.035156 20.714844 99.402344 20.445312 99.703125 20.09375 L 101.730469 22.121094 C 101.140625 22.757812 100.464844 23.242188 99.703125 23.574219 C 98.941406 23.910156 98.105469 24.078125 97.199219 24.078125 Z M 103.496094 23.835938 L 103.496094 12.324219 L 106.621094 12.324219 L 106.621094 23.835938 Z M 106.621094 17.472656 L 105.402344 16.664062 C 105.546875 15.25 105.960938 14.136719 106.644531 13.324219 C 107.328125 12.5 108.3125 12.085938 109.601562 12.085938 C 110.15625 12.085938 110.65625 12.179688 111.101562 12.371094 C 111.546875 12.546875 111.953125 12.839844 112.316406 13.253906 L 110.363281 15.496094 C 110.1875 15.304688 109.972656 15.160156 109.71875 15.066406 C 109.480469 14.96875 109.203125 14.921875 108.882812 14.921875 C 108.21875 14.921875 107.667969 15.136719 107.238281 15.566406 C 106.828125 15.980469 106.621094 16.613281 106.621094 17.472656 Z M 113.414062 23.835938 L 113.414062 12.324219 L 116.5625 12.324219 L 116.5625 23.835938 Z M 114.988281 10.464844 C 114.480469 10.464844 114.058594 10.296875 113.722656 9.964844 C 113.390625 9.613281 113.222656 9.183594 113.222656 8.675781 C 113.222656 8.183594 113.390625 7.761719 113.722656 7.414062 C 114.058594 7.0625 114.480469 6.890625 114.988281 6.890625 C 115.511719 6.890625 115.933594 7.0625 116.25 7.414062 C 116.585938 7.761719 116.75 8.183594 116.75 8.675781 C 116.75 9.183594 116.585938 9.613281 116.25 9.964844 C 115.933594 10.296875 115.511719 10.464844 114.988281 10.464844 Z M 125.714844 24.078125 C 124.890625 24.078125 124.140625 23.910156 123.476562 23.574219 C 122.808594 23.226562 122.273438 22.757812 121.878906 22.167969 C 121.480469 21.582031 121.265625 20.90625 121.234375 20.144531 L 121.234375 16.066406 C 121.265625 15.304688 121.480469 14.628906 121.878906 14.039062 C 122.292969 13.4375 122.824219 12.960938 123.476562 12.609375 C 124.140625 12.261719 124.890625 12.085938 125.714844 12.085938 C 126.78125 12.085938 127.734375 12.347656 128.574219 12.871094 C 129.417969 13.398438 130.078125 14.113281 130.554688 15.019531 C 131.046875 15.921875 131.292969 16.949219 131.292969 18.09375 C 131.292969 19.222656 131.046875 20.238281 130.554688 21.144531 C 130.078125 22.050781 129.417969 22.765625 128.574219 23.289062 C 127.734375 23.8125 126.78125 24.078125 125.714844 24.078125 Z M 125.167969 21.191406 C 125.738281 21.191406 126.25 21.066406 126.691406 20.808594 C 127.136719 20.539062 127.480469 20.175781 127.71875 19.714844 C 127.972656 19.238281 128.097656 18.6875 128.097656 18.070312 C 128.097656 17.464844 127.972656 16.933594 127.71875 16.472656 C 127.480469 15.996094 127.136719 15.628906 126.691406 15.375 C 126.25 15.105469 125.738281 14.96875 125.167969 14.96875 C 124.609375 14.96875 124.109375 15.105469 123.664062 15.375 C 123.222656 15.628906 122.871094 15.996094 122.617188 16.472656 C 122.378906 16.933594 122.257812 17.464844 122.257812 18.070312 C 122.257812 18.6875 122.378906 19.238281 122.617188 19.714844 C 122.871094 20.175781 123.210938 20.539062 123.640625 20.808594 C 124.085938 21.066406 124.59375 21.191406 125.167969 21.191406 Z M 119.328125 28.652344 L 119.328125 12.324219 L 122.449219 12.324219 L 122.449219 15.351562 L 121.925781 18.140625 L 122.425781 20.929688 L 122.425781 28.652344 Z M 134.753906 23.835938 L 134.753906 7.53125 L 137.878906 7.53125 L 137.878906 23.835938 Z M 132.0625 15.066406 L 132.0625 12.324219 L 140.570312 12.324219 L 140.570312 15.066406 Z M 147.457031 24.078125 C 146.296875 24.078125 145.25 23.8125 144.3125 23.289062 C 143.390625 22.75 142.652344 22.027344 142.09375 21.121094 C 141.554688 20.199219 141.285156 19.171875 141.285156 18.046875 C 141.285156 16.917969 141.554688 15.90625 142.09375 15.019531 C 142.636719 14.113281 143.375 13.398438 144.3125 12.871094 C 145.25 12.332031 146.289062 12.0625 147.433594 12.0625 C 148.609375 12.0625 149.660156 12.332031 150.582031 12.871094 C 151.519531 13.398438 152.257812 14.113281 152.796875 15.019531 C 153.339844 15.90625 153.609375 16.917969 153.609375 18.046875 C 153.609375 19.171875 153.339844 20.199219 152.796875 21.121094 C 152.257812 22.027344 151.519531 22.75 150.582031 23.289062 C 149.660156 23.8125 148.617188 24.078125 147.457031 24.078125 Z M 147.433594 21.167969 C 148.023438 21.167969 148.539062 21.039062 148.984375 20.785156 C 149.445312 20.515625 149.792969 20.152344 150.03125 19.691406 C 150.289062 19.214844 150.414062 18.671875 150.414062 18.070312 C 150.414062 17.464844 150.289062 16.933594 150.03125 16.472656 C 149.777344 16.011719 149.429688 15.652344 148.984375 15.398438 C 148.539062 15.128906 148.023438 14.992188 147.433594 14.992188 C 146.863281 14.992188 146.355469 15.128906 145.910156 15.398438 C 145.464844 15.652344 145.113281 16.011719 144.859375 16.472656 C 144.605469 16.933594 144.480469 17.464844 144.480469 18.070312 C 144.480469 18.671875 144.605469 19.214844 144.859375 19.691406 C 145.113281 20.152344 145.464844 20.515625 145.910156 20.785156 C 146.355469 21.039062 146.863281 21.167969 147.433594 21.167969 Z M 147.433594 21.167969 " fill-opacity="1" fill-rule="nonzero"/><path fill="#5f5f5f" d="M 44.832031 34.265625 L 44.832031 33.183594 L 46.433594 33.183594 C 46.839844 33.183594 47.191406 33.101562 47.496094 32.933594 C 47.800781 32.761719 48.035156 32.519531 48.203125 32.210938 C 48.375 31.902344 48.460938 31.535156 48.460938 31.113281 C 48.460938 30.699219 48.375 30.34375 48.203125 30.039062 C 48.03125 29.730469 47.792969 29.492188 47.488281 29.324219 C 47.183594 29.152344 46.832031 29.0625 46.433594 29.0625 L 44.804688 29.0625 L 44.804688 27.984375 L 46.449219 27.984375 C 46.914062 27.984375 47.34375 28.058594 47.738281 28.214844 C 48.136719 28.371094 48.484375 28.589844 48.773438 28.875 C 49.074219 29.15625 49.300781 29.488281 49.464844 29.867188 C 49.628906 30.25 49.714844 30.667969 49.714844 31.121094 C 49.714844 31.574219 49.628906 31.992188 49.464844 32.378906 C 49.300781 32.761719 49.078125 33.097656 48.785156 33.382812 C 48.492188 33.660156 48.148438 33.878906 47.746094 34.035156 C 47.355469 34.1875 46.929688 34.265625 46.46875 34.265625 Z M 44 34.265625 L 44 27.984375 L 45.21875 27.984375 L 45.21875 34.265625 Z M 52.359375 34.355469 C 51.96875 34.355469 51.613281 34.257812 51.296875 34.0625 C 50.980469 33.863281 50.734375 33.597656 50.554688 33.257812 C 50.375 32.917969 50.285156 32.535156 50.285156 32.113281 C 50.285156 31.683594 50.375 31.300781 50.554688 30.960938 C 50.734375 30.621094 50.980469 30.351562 51.296875 30.15625 C 51.613281 29.957031 51.96875 29.859375 52.359375 29.859375 C 52.671875 29.859375 52.949219 29.921875 53.191406 30.046875 C 53.4375 30.171875 53.628906 30.347656 53.773438 30.574219 C 53.921875 30.796875 54.003906 31.046875 54.015625 31.324219 L 54.015625 32.882812 C 54.003906 33.167969 53.921875 33.421875 53.773438 33.640625 C 53.628906 33.863281 53.4375 34.039062 53.191406 34.167969 C 52.949219 34.292969 52.671875 34.355469 52.359375 34.355469 Z M 52.574219 33.273438 C 52.902344 33.273438 53.167969 33.167969 53.371094 32.953125 C 53.574219 32.730469 53.675781 32.449219 53.675781 32.105469 C 53.675781 31.878906 53.625 31.675781 53.53125 31.503906 C 53.441406 31.324219 53.3125 31.1875 53.148438 31.09375 C 52.984375 30.992188 52.796875 30.941406 52.574219 30.941406 C 52.359375 30.941406 52.167969 30.992188 52.003906 31.09375 C 51.84375 31.1875 51.714844 31.324219 51.617188 31.503906 C 51.527344 31.675781 51.484375 31.878906 51.484375 32.105469 C 51.484375 32.335938 51.527344 32.542969 51.617188 32.71875 C 51.714844 32.894531 51.84375 33.03125 52.003906 33.132812 C 52.167969 33.226562 52.359375 33.273438 52.574219 33.273438 Z M 53.613281 34.265625 L 53.613281 33.105469 L 53.800781 32.050781 L 53.613281 31.011719 L 53.613281 29.949219 L 54.773438 29.949219 L 54.773438 34.265625 Z M 57.292969 34.363281 C 57.050781 34.363281 56.808594 34.332031 56.570312 34.265625 C 56.335938 34.203125 56.121094 34.113281 55.925781 34 C 55.730469 33.878906 55.558594 33.738281 55.417969 33.570312 L 56.113281 32.863281 C 56.261719 33.03125 56.4375 33.15625 56.632812 33.238281 C 56.828125 33.324219 57.046875 33.363281 57.285156 33.363281 C 57.476562 33.363281 57.617188 33.335938 57.714844 33.285156 C 57.816406 33.230469 57.867188 33.148438 57.867188 33.042969 C 57.867188 32.921875 57.8125 32.832031 57.707031 32.765625 C 57.605469 32.699219 57.46875 32.644531 57.304688 32.605469 C 57.136719 32.554688 56.960938 32.507812 56.777344 32.453125 C 56.597656 32.394531 56.425781 32.316406 56.257812 32.230469 C 56.089844 32.132812 55.953125 32.003906 55.847656 31.84375 C 55.746094 31.675781 55.695312 31.464844 55.695312 31.199219 C 55.695312 30.925781 55.757812 30.6875 55.890625 30.484375 C 56.027344 30.28125 56.222656 30.125 56.472656 30.011719 C 56.722656 29.898438 57.015625 29.84375 57.355469 29.84375 C 57.714844 29.84375 58.035156 29.90625 58.320312 30.03125 C 58.613281 30.15625 58.855469 30.34375 59.046875 30.59375 L 58.339844 31.300781 C 58.207031 31.136719 58.058594 31.023438 57.894531 30.949219 C 57.730469 30.878906 57.554688 30.84375 57.367188 30.84375 C 57.191406 30.84375 57.058594 30.871094 56.964844 30.921875 C 56.875 30.976562 56.828125 31.050781 56.828125 31.148438 C 56.828125 31.253906 56.878906 31.335938 56.980469 31.398438 C 57.089844 31.457031 57.226562 31.511719 57.390625 31.558594 C 57.558594 31.601562 57.730469 31.652344 57.910156 31.710938 C 58.09375 31.765625 58.269531 31.839844 58.429688 31.941406 C 58.597656 32.042969 58.730469 32.179688 58.832031 32.34375 C 58.9375 32.511719 58.992188 32.726562 58.992188 32.988281 C 58.992188 33.410156 58.839844 33.75 58.535156 34 C 58.234375 34.242188 57.820312 34.363281 57.292969 34.363281 Z M 62.6875 34.265625 L 62.6875 31.789062 C 62.6875 31.535156 62.605469 31.324219 62.445312 31.164062 C 62.285156 31.003906 62.078125 30.921875 61.820312 30.921875 C 61.652344 30.921875 61.503906 30.960938 61.375 31.03125 C 61.242188 31.101562 61.136719 31.203125 61.058594 31.335938 C 60.988281 31.464844 60.953125 31.617188 60.953125 31.789062 L 60.496094 31.558594 C 60.496094 31.21875 60.570312 30.921875 60.710938 30.671875 C 60.855469 30.417969 61.050781 30.21875 61.300781 30.074219 C 61.558594 29.929688 61.851562 29.859375 62.179688 29.859375 C 62.503906 29.859375 62.792969 29.929688 63.042969 30.074219 C 63.300781 30.21875 63.5 30.414062 63.644531 30.664062 C 63.785156 30.914062 63.859375 31.203125 63.859375 31.53125 L 63.859375 34.265625 Z M 59.78125 34.265625 L 59.78125 27.804688 L 60.953125 27.804688 L 60.953125 34.265625 Z M 67.199219 34.355469 C 66.886719 34.355469 66.605469 34.289062 66.355469 34.160156 C 66.105469 34.027344 65.90625 33.851562 65.757812 33.625 C 65.609375 33.398438 65.527344 33.144531 65.515625 32.863281 L 65.515625 31.324219 C 65.527344 31.046875 65.609375 30.796875 65.757812 30.574219 C 65.914062 30.347656 66.117188 30.171875 66.367188 30.046875 C 66.617188 29.921875 66.894531 29.859375 67.199219 29.859375 C 67.597656 29.859375 67.953125 29.957031 68.269531 30.15625 C 68.585938 30.351562 68.832031 30.621094 69.011719 30.960938 C 69.195312 31.300781 69.289062 31.683594 69.289062 32.113281 C 69.289062 32.535156 69.195312 32.917969 69.011719 33.257812 C 68.832031 33.597656 68.585938 33.863281 68.269531 34.0625 C 67.953125 34.257812 67.597656 34.355469 67.199219 34.355469 Z M 67 33.273438 C 67.214844 33.273438 67.402344 33.226562 67.5625 33.132812 C 67.730469 33.03125 67.859375 32.894531 67.949219 32.71875 C 68.042969 32.542969 68.089844 32.335938 68.089844 32.105469 C 68.089844 31.878906 68.042969 31.675781 67.949219 31.503906 C 67.859375 31.324219 67.730469 31.1875 67.5625 31.09375 C 67.398438 30.992188 67.207031 30.941406 66.992188 30.941406 C 66.777344 30.941406 66.585938 30.992188 66.417969 31.09375 C 66.257812 31.1875 66.128906 31.324219 66.035156 31.503906 C 65.945312 31.675781 65.902344 31.878906 65.902344 32.105469 C 65.902344 32.335938 65.945312 32.542969 66.035156 32.71875 C 66.128906 32.894531 66.261719 33.03125 66.429688 33.132812 C 66.59375 33.226562 66.785156 33.273438 67 33.273438 Z M 64.800781 34.265625 L 64.800781 27.804688 L 65.972656 27.804688 L 65.972656 31.011719 L 65.777344 32.050781 L 65.964844 33.105469 L 65.964844 34.265625 Z M 72.085938 34.355469 C 71.652344 34.355469 71.257812 34.257812 70.90625 34.0625 C 70.558594 33.859375 70.285156 33.585938 70.074219 33.246094 C 69.871094 32.902344 69.769531 32.519531 69.769531 32.09375 C 69.769531 31.671875 69.871094 31.292969 70.074219 30.960938 C 70.277344 30.621094 70.554688 30.351562 70.90625 30.15625 C 71.257812 29.953125 71.648438 29.851562 72.078125 29.851562 C 72.519531 29.851562 72.910156 29.953125 73.257812 30.15625 C 73.609375 30.351562 73.886719 30.621094 74.089844 30.960938 C 74.292969 31.292969 74.390625 31.671875 74.390625 32.09375 C 74.390625 32.519531 74.292969 32.902344 74.089844 33.246094 C 73.886719 33.585938 73.609375 33.859375 73.257812 34.0625 C 72.910156 34.257812 72.519531 34.355469 72.085938 34.355469 Z M 72.078125 33.265625 C 72.296875 33.265625 72.492188 33.21875 72.65625 33.121094 C 72.832031 33.019531 72.960938 32.882812 73.050781 32.710938 C 73.148438 32.53125 73.195312 32.328125 73.195312 32.105469 C 73.195312 31.878906 73.148438 31.675781 73.050781 31.503906 C 72.957031 31.332031 72.824219 31.199219 72.65625 31.101562 C 72.492188 31 72.296875 30.949219 72.078125 30.949219 C 71.863281 30.949219 71.671875 31 71.503906 31.101562 C 71.339844 31.199219 71.207031 31.332031 71.113281 31.503906 C 71.015625 31.675781 70.96875 31.878906 70.96875 32.105469 C 70.96875 32.328125 71.015625 32.53125 71.113281 32.710938 C 71.207031 32.882812 71.339844 33.019531 71.503906 33.121094 C 71.671875 33.21875 71.863281 33.265625 72.078125 33.265625 Z M 76.953125 34.355469 C 76.558594 34.355469 76.203125 34.257812 75.886719 34.0625 C 75.574219 33.863281 75.324219 33.597656 75.148438 33.257812 C 74.96875 32.917969 74.878906 32.535156 74.878906 32.113281 C 74.878906 31.683594 74.96875 31.300781 75.148438 30.960938 C 75.324219 30.621094 75.574219 30.351562 75.886719 30.15625 C 76.203125 29.957031 76.558594 29.859375 76.953125 29.859375 C 77.261719 29.859375 77.539062 29.921875 77.785156 30.046875 C 78.027344 30.171875 78.222656 30.347656 78.363281 30.574219 C 78.515625 30.796875 78.59375 31.046875 78.605469 31.324219 L 78.605469 32.882812 C 78.59375 33.167969 78.515625 33.421875 78.363281 33.640625 C 78.222656 33.863281 78.027344 34.039062 77.785156 34.167969 C 77.539062 34.292969 77.261719 34.355469 76.953125 34.355469 Z M 77.167969 33.273438 C 77.496094 33.273438 77.761719 33.167969 77.960938 32.953125 C 78.164062 32.730469 78.265625 32.449219 78.265625 32.105469 C 78.265625 31.878906 78.21875 31.675781 78.125 31.503906 C 78.035156 31.324219 77.90625 31.1875 77.738281 31.09375 C 77.578125 30.992188 77.386719 30.941406 77.167969 30.941406 C 76.953125 30.941406 76.761719 30.992188 76.59375 31.09375 C 76.433594 31.1875 76.304688 31.324219 76.210938 31.503906 C 76.121094 31.675781 76.078125 31.878906 76.078125 32.105469 C 76.078125 32.335938 76.121094 32.542969 76.210938 32.71875 C 76.304688 32.894531 76.433594 33.03125 76.59375 33.132812 C 76.761719 33.226562 76.953125 33.273438 77.167969 33.273438 Z M 78.203125 34.265625 L 78.203125 33.105469 L 78.390625 32.050781 L 78.203125 31.011719 L 78.203125 29.949219 L 79.367188 29.949219 L 79.367188 34.265625 Z M 80.402344 34.265625 L 80.402344 29.949219 L 81.574219 29.949219 L 81.574219 34.265625 Z M 81.574219 31.878906 L 81.117188 31.578125 C 81.171875 31.046875 81.324219 30.628906 81.582031 30.324219 C 81.835938 30.015625 82.207031 29.859375 82.691406 29.859375 C 82.898438 29.859375 83.085938 29.894531 83.253906 29.96875 C 83.417969 30.03125 83.570312 30.144531 83.707031 30.296875 L 82.976562 31.136719 C 82.910156 31.066406 82.828125 31.011719 82.734375 30.976562 C 82.644531 30.941406 82.539062 30.921875 82.421875 30.921875 C 82.171875 30.921875 81.964844 31.003906 81.804688 31.164062 C 81.648438 31.320312 81.574219 31.558594 81.574219 31.878906 Z M 85.820312 34.355469 C 85.421875 34.355469 85.066406 34.257812 84.75 34.0625 C 84.433594 33.863281 84.183594 33.597656 83.996094 33.257812 C 83.820312 32.917969 83.730469 32.535156 83.730469 32.113281 C 83.730469 31.683594 83.820312 31.300781 83.996094 30.960938 C 84.183594 30.621094 84.429688 30.351562 84.738281 30.15625 C 85.054688 29.957031 85.417969 29.859375 85.820312 29.859375 C 86.132812 29.859375 86.410156 29.921875 86.652344 30.046875 C 86.902344 30.171875 87.101562 30.347656 87.25 30.574219 C 87.40625 30.796875 87.488281 31.046875 87.503906 31.324219 L 87.503906 32.863281 C 87.488281 33.144531 87.410156 33.398438 87.261719 33.625 C 87.113281 33.851562 86.910156 34.027344 86.660156 34.160156 C 86.410156 34.289062 86.132812 34.355469 85.820312 34.355469 Z M 86.019531 33.273438 C 86.238281 33.273438 86.429688 33.226562 86.589844 33.132812 C 86.757812 33.03125 86.886719 32.894531 86.976562 32.71875 C 87.070312 32.542969 87.117188 32.335938 87.117188 32.105469 C 87.117188 31.878906 87.070312 31.675781 86.976562 31.503906 C 86.886719 31.324219 86.757812 31.1875 86.589844 31.09375 C 86.429688 30.992188 86.242188 30.941406 86.027344 30.941406 C 85.804688 30.941406 85.613281 30.992188 85.445312 31.09375 C 85.285156 31.195312 85.15625 31.332031 85.0625 31.503906 C 84.972656 31.675781 84.925781 31.878906 84.925781 32.105469 C 84.925781 32.335938 84.972656 32.542969 85.0625 32.71875 C 85.15625 32.894531 85.289062 33.03125 85.453125 33.132812 C 85.621094 33.226562 85.808594 33.273438 86.019531 33.273438 Z M 88.21875 34.265625 L 87.054688 34.265625 L 87.054688 33.105469 L 87.242188 32.050781 L 87.046875 31.011719 L 87.046875 27.804688 L 88.21875 27.804688 Z M 92.019531 31.933594 L 92.019531 30.941406 L 93.476562 30.941406 C 93.667969 30.941406 93.839844 30.902344 93.996094 30.824219 C 94.148438 30.746094 94.269531 30.636719 94.359375 30.496094 C 94.449219 30.34375 94.496094 30.167969 94.496094 29.957031 C 94.496094 29.753906 94.449219 29.578125 94.359375 29.429688 C 94.269531 29.28125 94.148438 29.167969 93.996094 29.089844 C 93.839844 29.011719 93.667969 28.976562 93.476562 28.976562 L 92.019531 28.976562 L 92.019531 27.984375 L 93.601562 27.984375 C 94 27.984375 94.359375 28.0625 94.671875 28.222656 C 94.996094 28.386719 95.25 28.613281 95.433594 28.914062 C 95.617188 29.203125 95.710938 29.554688 95.710938 29.957031 C 95.710938 30.363281 95.617188 30.714844 95.433594 31.011719 C 95.25 31.304688 94.996094 31.53125 94.671875 31.691406 C 94.359375 31.851562 94 31.933594 93.601562 31.933594 Z M 91.125 34.265625 L 91.125 27.984375 L 92.339844 27.984375 L 92.339844 34.265625 Z M 98.113281 34.355469 C 97.71875 34.355469 97.363281 34.257812 97.050781 34.0625 C 96.734375 33.863281 96.484375 33.597656 96.308594 33.257812 C 96.128906 32.917969 96.039062 32.535156 96.039062 32.113281 C 96.039062 31.683594 96.128906 31.300781 96.308594 30.960938 C 96.484375 30.621094 96.734375 30.351562 97.050781 30.15625 C 97.363281 29.957031 97.71875 29.859375 98.113281 29.859375 C 98.421875 29.859375 98.699219 29.921875 98.945312 30.046875 C 99.1875 30.171875 99.382812 30.347656 99.523438 30.574219 C 99.675781 30.796875 99.753906 31.046875 99.765625 31.324219 L 99.765625 32.882812 C 99.753906 33.167969 99.675781 33.421875 99.523438 33.640625 C 99.382812 33.863281 99.1875 34.039062 98.945312 34.167969 C 98.699219 34.292969 98.421875 34.355469 98.113281 34.355469 Z M 98.328125 33.273438 C 98.65625 33.273438 98.921875 33.167969 99.121094 32.953125 C 99.324219 32.730469 99.425781 32.449219 99.425781 32.105469 C 99.425781 31.878906 99.378906 31.675781 99.285156 31.503906 C 99.195312 31.324219 99.066406 31.1875 98.898438 31.09375 C 98.738281 30.992188 98.546875 30.941406 98.328125 30.941406 C 98.113281 30.941406 97.921875 30.992188 97.753906 31.09375 C 97.59375 31.1875 97.464844 31.324219 97.371094 31.503906 C 97.28125 31.675781 97.238281 31.878906 97.238281 32.105469 C 97.238281 32.335938 97.28125 32.542969 97.371094 32.71875 C 97.464844 32.894531 97.59375 33.03125 97.753906 33.132812 C 97.921875 33.226562 98.113281 33.273438 98.328125 33.273438 Z M 99.363281 34.265625 L 99.363281 33.105469 L 99.550781 32.050781 L 99.363281 31.011719 L 99.363281 29.949219 L 100.527344 29.949219 L 100.527344 34.265625 Z M 104.46875 34.265625 L 104.46875 31.789062 C 104.46875 31.535156 104.386719 31.324219 104.226562 31.164062 C 104.066406 31.003906 103.855469 30.921875 103.601562 30.921875 C 103.433594 30.921875 103.285156 30.960938 103.152344 31.03125 C 103.023438 31.101562 102.917969 31.203125 102.839844 31.335938 C 102.769531 31.464844 102.734375 31.617188 102.734375 31.789062 L 102.277344 31.558594 C 102.277344 31.21875 102.347656 30.921875 102.492188 30.671875 C 102.640625 30.417969 102.84375 30.21875 103.101562 30.074219 C 103.363281 29.929688 103.65625 29.859375 103.984375 29.859375 C 104.300781 29.859375 104.585938 29.941406 104.835938 30.101562 C 105.085938 30.257812 105.28125 30.460938 105.425781 30.71875 C 105.566406 30.96875 105.636719 31.238281 105.636719 31.53125 L 105.636719 34.265625 Z M 101.5625 34.265625 L 101.5625 29.949219 L 102.734375 29.949219 L 102.734375 34.265625 Z M 108.648438 34.355469 C 108.195312 34.355469 107.792969 34.261719 107.441406 34.070312 C 107.089844 33.875 106.808594 33.605469 106.601562 33.265625 C 106.398438 32.925781 106.296875 32.539062 106.296875 32.105469 C 106.296875 31.675781 106.394531 31.292969 106.589844 30.960938 C 106.792969 30.621094 107.066406 30.351562 107.414062 30.15625 C 107.757812 29.953125 108.144531 29.851562 108.566406 29.851562 C 108.984375 29.851562 109.351562 29.945312 109.667969 30.136719 C 109.988281 30.320312 110.238281 30.578125 110.417969 30.90625 C 110.601562 31.226562 110.695312 31.59375 110.695312 32.003906 C 110.695312 32.082031 110.6875 32.164062 110.675781 32.246094 C 110.671875 32.324219 110.65625 32.414062 110.632812 32.515625 L 107.003906 32.523438 L 107.003906 31.648438 L 110.085938 31.640625 L 109.613281 32.003906 C 109.601562 31.75 109.554688 31.535156 109.46875 31.363281 C 109.390625 31.1875 109.277344 31.058594 109.121094 30.96875 C 108.972656 30.871094 108.785156 30.824219 108.566406 30.824219 C 108.335938 30.824219 108.132812 30.878906 107.957031 30.984375 C 107.785156 31.085938 107.652344 31.234375 107.554688 31.425781 C 107.46875 31.609375 107.421875 31.828125 107.421875 32.085938 C 107.421875 32.347656 107.46875 32.578125 107.566406 32.773438 C 107.667969 32.964844 107.808594 33.113281 107.996094 33.222656 C 108.179688 33.324219 108.394531 33.371094 108.636719 33.371094 C 108.859375 33.371094 109.058594 33.335938 109.238281 33.265625 C 109.414062 33.1875 109.570312 33.074219 109.703125 32.925781 L 110.390625 33.613281 C 110.179688 33.859375 109.925781 34.042969 109.621094 34.167969 C 109.324219 34.292969 109 34.355469 108.648438 34.355469 Z M 111.417969 34.265625 L 111.417969 27.804688 L 112.589844 27.804688 L 112.589844 34.265625 Z M 111.417969 34.265625 " fill-opacity="1" fill-rule="nonzero"/><g clip-path="url(#7a40c49917)"><g clip-path="url(#d65b3bc604)"><g transform="matrix(1, 0, 0, 1, 41, 6)"><g clip-path="url(#cf2e02f42c)"><g clip-path="url(#263db2e0e7)"><g clip-path="url(#ae300c66fb)"><path fill="#ffffff" d="M 0.53125 0.667969 L 42.003906 0.667969 L 42.003906 19.066406 L 0.53125 19.066406 Z M 0.53125 0.667969 " fill-opacity="1" fill-rule="nonzero"/></g></g></g></g></g></g><g clip-path="url(#3d18b047af)"><g clip-path="url(#beb42c57d1)"><g transform="matrix(1, 0, 0, 1, 75, 6)"><g clip-path="url(#3eb684a9b7)"><g clip-path="url(#38ac607fa1)"><g clip-path="url(#70e1d936f0)"><path fill="#ffffff" d="M 0.800781 0.667969 L 42.269531 0.667969 L 42.269531 19.066406 L 0.800781 19.066406 Z M 0.800781 0.667969 " fill-opacity="1" fill-rule="nonzero"/></g></g></g></g></g></g><g clip-path="url(#41f6cf3935)"><g clip-path="url(#6db74dbfc4)"><g transform="matrix(1, 0, 0, 1, 112, 6)"><g clip-path="url(#f2ca065ed0)"><g clip-path="url(#d9cb5624a6)"><g clip-path="url(#37de93201e)"><path fill="#ffffff" d="M 0.859375 0.667969 L 42.332031 0.667969 L 42.332031 19.066406 L 0.859375 19.066406 Z M 0.859375 0.667969 " fill-opacity="1" fill-rule="nonzero"/></g></g></g></g></g></g><g clip-path="url(#d9ed08e47b)"><g clip-path="url(#fb366e5993)"><g transform="matrix(1, 0, 0, 1, 117, 14)"><g clip-path="url(#d90ed90284)"><g clip-path="url(#a9df35cf2e)"><g clip-path="url(#61167f2a55)"><path fill="#ffffff" d="M 0.292969 0.453125 L 41.765625 0.453125 L 41.765625 18.851562 L 0.292969 18.851562 Z M 0.292969 0.453125 " fill-opacity="1" fill-rule="nonzero"/></g></g></g></g></g></g><g clip-path="url(#5d795f94a3)"><g transform="matrix(1, 0, 0, 1, 41, 27)"><g clip-path="url(#ddaebaac62)"><g clip-path="url(#db406fd09c)"><path fill="#ffffff" d="M 0.53125 0.375 L 103.707031 0.375 L 103.707031 11.328125 L 0.53125 11.328125 Z M 0.53125 0.375 " fill-opacity="1" fill-rule="nonzero"/></g></g></g></g><g fill="#000b6d" fill-opacity="1"><g transform="translate(41.244359, 27.705185)"><g><path d="M 6.515625 0.1875 C 5.398438 0.1875 4.394531 -0.0507812 3.5 -0.53125 C 2.601562 -1.019531 1.894531 -1.691406 1.375 -2.546875 C 0.863281 -3.398438 0.609375 -4.367188 0.609375 -5.453125 C 0.609375 -6.535156 0.863281 -7.503906 1.375 -8.359375 C 1.894531 -9.210938 2.601562 -9.878906 3.5 -10.359375 C 4.394531 -10.847656 5.40625 -11.09375 6.53125 -11.09375 C 7.46875 -11.09375 8.316406 -10.925781 9.078125 -10.59375 C 9.847656 -10.257812 10.492188 -9.78125 11.015625 -9.15625 L 9.390625 -7.671875 C 8.648438 -8.515625 7.738281 -8.9375 6.65625 -8.9375 C 5.976562 -8.9375 5.375 -8.785156 4.84375 -8.484375 C 4.3125 -8.191406 3.894531 -7.78125 3.59375 -7.25 C 3.300781 -6.726562 3.15625 -6.128906 3.15625 -5.453125 C 3.15625 -4.773438 3.300781 -4.171875 3.59375 -3.640625 C 3.894531 -3.109375 4.3125 -2.695312 4.84375 -2.40625 C 5.375 -2.113281 5.976562 -1.96875 6.65625 -1.96875 C 7.738281 -1.96875 8.648438 -2.394531 9.390625 -3.25 L 11.015625 -1.765625 C 10.492188 -1.128906 9.847656 -0.644531 9.078125 -0.3125 C 8.304688 0.0195312 7.453125 0.1875 6.515625 0.1875 Z M 6.515625 0.1875 "/></g></g></g><g fill="#000b6d" fill-opacity="1"><g transform="translate(52.659889, 27.705185)"><g><path d="M 1.125 -11.5625 L 3.546875 -11.5625 L 3.546875 0 L 1.125 0 Z M 1.125 -11.5625 "/></g></g></g><g fill="#000b6d" fill-opacity="1"><g transform="translate(57.347578, 27.705185)"><g><path d="M 1.125 -8.375 L 3.546875 -8.375 L 3.546875 0 L 1.125 0 Z M 2.34375 -9.546875 C 1.894531 -9.546875 1.53125 -9.675781 1.25 -9.9375 C 0.96875 -10.195312 0.828125 -10.519531 0.828125 -10.90625 C 0.828125 -11.289062 0.96875 -11.613281 1.25 -11.875 C 1.53125 -12.132812 1.894531 -12.265625 2.34375 -12.265625 C 2.789062 -12.265625 3.15625 -12.140625 3.4375 -11.890625 C 3.71875 -11.640625 3.859375 -11.328125 3.859375 -10.953125 C 3.859375 -10.546875 3.71875 -10.207031 3.4375 -9.9375 C 3.15625 -9.675781 2.789062 -9.546875 2.34375 -9.546875 Z M 2.34375 -9.546875 "/></g></g></g><g fill="#000b6d" fill-opacity="1"><g transform="translate(62.035267, 27.705185)"><g><path d="M 6.21875 -8.5 C 7.257812 -8.5 8.097656 -8.1875 8.734375 -7.5625 C 9.367188 -6.945312 9.6875 -6.023438 9.6875 -4.796875 L 9.6875 0 L 7.265625 0 L 7.265625 -4.421875 C 7.265625 -5.085938 7.117188 -5.582031 6.828125 -5.90625 C 6.535156 -6.238281 6.113281 -6.40625 5.5625 -6.40625 C 4.945312 -6.40625 4.457031 -6.210938 4.09375 -5.828125 C 3.726562 -5.453125 3.546875 -4.890625 3.546875 -4.140625 L 3.546875 0 L 1.125 0 L 1.125 -8.375 L 3.4375 -8.375 L 3.4375 -7.40625 C 3.757812 -7.75 4.160156 -8.015625 4.640625 -8.203125 C 5.117188 -8.398438 5.644531 -8.5 6.21875 -8.5 Z M 6.21875 -8.5 "/></g></g></g><g fill="#000b6d" fill-opacity="1"><g transform="translate(72.796707, 27.705185)"><g><path d="M 1.125 -8.375 L 3.546875 -8.375 L 3.546875 0 L 1.125 0 Z M 2.34375 -9.546875 C 1.894531 -9.546875 1.53125 -9.675781 1.25 -9.9375 C 0.96875 -10.195312 0.828125 -10.519531 0.828125 -10.90625 C 0.828125 -11.289062 0.96875 -11.613281 1.25 -11.875 C 1.53125 -12.132812 1.894531 -12.265625 2.34375 -12.265625 C 2.789062 -12.265625 3.15625 -12.140625 3.4375 -11.890625 C 3.71875 -11.640625 3.859375 -11.328125 3.859375 -10.953125 C 3.859375 -10.546875 3.71875 -10.207031 3.4375 -9.9375 C 3.15625 -9.675781 2.789062 -9.546875 2.34375 -9.546875 Z M 2.34375 -9.546875 "/></g></g></g><g fill="#000b6d" fill-opacity="1"><g transform="translate(77.484396, 27.705185)"><g><path d="M 5.171875 0.125 C 4.273438 0.125 3.472656 -0.0546875 2.765625 -0.421875 C 2.054688 -0.796875 1.5 -1.304688 1.09375 -1.953125 C 0.695312 -2.609375 0.5 -3.351562 0.5 -4.1875 C 0.5 -5.019531 0.695312 -5.765625 1.09375 -6.421875 C 1.5 -7.078125 2.054688 -7.585938 2.765625 -7.953125 C 3.472656 -8.316406 4.273438 -8.5 5.171875 -8.5 C 6.054688 -8.5 6.828125 -8.316406 7.484375 -7.953125 C 8.140625 -7.585938 8.617188 -7.0625 8.921875 -6.375 L 7.046875 -5.359375 C 6.609375 -6.128906 5.976562 -6.515625 5.15625 -6.515625 C 4.519531 -6.515625 3.992188 -6.304688 3.578125 -5.890625 C 3.160156 -5.472656 2.953125 -4.90625 2.953125 -4.1875 C 2.953125 -3.46875 3.160156 -2.898438 3.578125 -2.484375 C 3.992188 -2.078125 4.519531 -1.875 5.15625 -1.875 C 5.988281 -1.875 6.617188 -2.253906 7.046875 -3.015625 L 8.921875 -2 C 8.617188 -1.332031 8.140625 -0.8125 7.484375 -0.4375 C 6.828125 -0.0625 6.054688 0.125 5.171875 0.125 Z M 5.171875 0.125 "/></g></g></g><g fill="#000b6d" fill-opacity="1"><g transform="translate(86.688465, 27.705185)"><g><path d="M 9.734375 -2.03125 L 9.734375 0 L 1.296875 0 L 1.296875 -10.90625 L 9.53125 -10.90625 L 9.53125 -8.875 L 3.796875 -8.875 L 3.796875 -6.515625 L 8.859375 -6.515625 L 8.859375 -4.546875 L 3.796875 -4.546875 L 3.796875 -2.03125 Z M 9.734375 -2.03125 "/></g></g></g><g fill="#000b6d" fill-opacity="1"><g transform="translate(97.076121, 27.705185)"><g><path d="M 4.5 -8.5 C 5.800781 -8.5 6.796875 -8.191406 7.484375 -7.578125 C 8.179688 -6.960938 8.53125 -6.03125 8.53125 -4.78125 L 8.53125 0 L 6.265625 0 L 6.265625 -1.046875 C 5.804688 -0.265625 4.953125 0.125 3.703125 0.125 C 3.054688 0.125 2.5 0.015625 2.03125 -0.203125 C 1.5625 -0.421875 1.203125 -0.722656 0.953125 -1.109375 C 0.703125 -1.492188 0.578125 -1.929688 0.578125 -2.421875 C 0.578125 -3.191406 0.867188 -3.800781 1.453125 -4.25 C 2.046875 -4.695312 2.953125 -4.921875 4.171875 -4.921875 L 6.109375 -4.921875 C 6.109375 -5.453125 5.945312 -5.859375 5.625 -6.140625 C 5.300781 -6.429688 4.816406 -6.578125 4.171875 -6.578125 C 3.722656 -6.578125 3.285156 -6.503906 2.859375 -6.359375 C 2.429688 -6.222656 2.066406 -6.035156 1.765625 -5.796875 L 0.890625 -7.5 C 1.347656 -7.8125 1.894531 -8.054688 2.53125 -8.234375 C 3.164062 -8.410156 3.820312 -8.5 4.5 -8.5 Z M 4.3125 -1.515625 C 4.726562 -1.515625 5.097656 -1.609375 5.421875 -1.796875 C 5.742188 -1.992188 5.972656 -2.273438 6.109375 -2.640625 L 6.109375 -3.5 L 4.4375 -3.5 C 3.4375 -3.5 2.9375 -3.175781 2.9375 -2.53125 C 2.9375 -2.21875 3.054688 -1.96875 3.296875 -1.78125 C 3.546875 -1.601562 3.882812 -1.515625 4.3125 -1.515625 Z M 4.3125 -1.515625 "/></g></g></g><g fill="#000b6d" fill-opacity="1"><g transform="translate(106.685097, 27.705185)"><g><path d="M 3.9375 0.125 C 3.238281 0.125 2.554688 0.0390625 1.890625 -0.125 C 1.234375 -0.300781 0.707031 -0.519531 0.3125 -0.78125 L 1.125 -2.53125 C 1.5 -2.289062 1.945312 -2.09375 2.46875 -1.9375 C 3 -1.789062 3.519531 -1.71875 4.03125 -1.71875 C 5.0625 -1.71875 5.578125 -1.972656 5.578125 -2.484375 C 5.578125 -2.710938 5.4375 -2.878906 5.15625 -2.984375 C 4.875 -3.085938 4.441406 -3.175781 3.859375 -3.25 C 3.171875 -3.351562 2.601562 -3.472656 2.15625 -3.609375 C 1.71875 -3.742188 1.332031 -3.984375 1 -4.328125 C 0.675781 -4.671875 0.515625 -5.160156 0.515625 -5.796875 C 0.515625 -6.328125 0.664062 -6.796875 0.96875 -7.203125 C 1.28125 -7.609375 1.726562 -7.925781 2.3125 -8.15625 C 2.894531 -8.382812 3.585938 -8.5 4.390625 -8.5 C 4.984375 -8.5 5.570312 -8.429688 6.15625 -8.296875 C 6.75 -8.171875 7.238281 -8 7.625 -7.78125 L 6.8125 -6.046875 C 6.070312 -6.460938 5.265625 -6.671875 4.390625 -6.671875 C 3.867188 -6.671875 3.476562 -6.597656 3.21875 -6.453125 C 2.957031 -6.304688 2.828125 -6.117188 2.828125 -5.890625 C 2.828125 -5.628906 2.96875 -5.445312 3.25 -5.34375 C 3.53125 -5.238281 3.976562 -5.140625 4.59375 -5.046875 C 5.28125 -4.929688 5.84375 -4.804688 6.28125 -4.671875 C 6.71875 -4.546875 7.09375 -4.3125 7.40625 -3.96875 C 7.726562 -3.625 7.890625 -3.148438 7.890625 -2.546875 C 7.890625 -2.023438 7.734375 -1.5625 7.421875 -1.15625 C 7.117188 -0.75 6.664062 -0.429688 6.0625 -0.203125 C 5.46875 0.015625 4.757812 0.125 3.9375 0.125 Z M 3.9375 0.125 "/></g></g></g><g fill="#000b6d" fill-opacity="1"><g transform="translate(114.954738, 27.705185)"><g><path d="M 9.328125 -4.15625 C 9.328125 -4.125 9.3125 -3.90625 9.28125 -3.5 L 2.9375 -3.5 C 3.050781 -2.976562 3.320312 -2.566406 3.75 -2.265625 C 4.175781 -1.972656 4.707031 -1.828125 5.34375 -1.828125 C 5.78125 -1.828125 6.164062 -1.890625 6.5 -2.015625 C 6.84375 -2.148438 7.160156 -2.351562 7.453125 -2.625 L 8.734375 -1.234375 C 7.953125 -0.328125 6.800781 0.125 5.28125 0.125 C 4.332031 0.125 3.492188 -0.0546875 2.765625 -0.421875 C 2.046875 -0.796875 1.488281 -1.304688 1.09375 -1.953125 C 0.695312 -2.609375 0.5 -3.351562 0.5 -4.1875 C 0.5 -5.007812 0.691406 -5.75 1.078125 -6.40625 C 1.472656 -7.070312 2.007812 -7.585938 2.6875 -7.953125 C 3.363281 -8.316406 4.125 -8.5 4.96875 -8.5 C 5.789062 -8.5 6.53125 -8.320312 7.1875 -7.96875 C 7.851562 -7.625 8.375 -7.117188 8.75 -6.453125 C 9.132812 -5.796875 9.328125 -5.03125 9.328125 -4.15625 Z M 4.984375 -6.671875 C 4.429688 -6.671875 3.96875 -6.515625 3.59375 -6.203125 C 3.21875 -5.890625 2.988281 -5.460938 2.90625 -4.921875 L 7.046875 -4.921875 C 6.960938 -5.453125 6.734375 -5.875 6.359375 -6.1875 C 5.984375 -6.507812 5.523438 -6.671875 4.984375 -6.671875 Z M 4.984375 -6.671875 "/></g></g></g></svg>