<svg xmlns="http://www.w3.org/2000/svg" xmlns:xlink="http://www.w3.org/1999/xlink" width="500" zoomAndPan="magnify" viewBox="0 0 375 374.999991" height="500" preserveAspectRatio="xMidYMid meet" version="1.0"><defs><clipPath id="fc115aba5b"><path d="M 6.195312 11 L 366 11 L 366 370.5625 L 6.195312 370.5625 Z M 6.195312 11 " clip-rule="nonzero"/></clipPath></defs><rect x="-37.5" width="450" fill="#ffffff" y="-37.499999" height="449.999989" fill-opacity="1"/><rect x="-37.5" width="450" fill="#ffffff" y="-37.499999" height="449.999989" fill-opacity="1"/><g clip-path="url(#fc115aba5b)"><path fill="#5f6fff" d="M 185.957031 11.003906 C 285.230469 11.003906 365.703125 91.542969 365.703125 190.898438 L 365.703125 316.824219 C 365.703125 331.136719 360.023438 344.863281 349.910156 354.984375 C 339.796875 365.105469 326.082031 370.789062 311.78125 370.789062 L 194.945312 370.789062 L 194.945312 291.871094 C 194.945312 273.863281 196.039062 255.210938 205.476562 239.882812 C 212.234375 228.898438 221.273438 219.496094 231.976562 212.316406 C 242.683594 205.136719 254.808594 200.34375 267.527344 198.265625 L 270.96875 197.707031 C 272.386719 197.222656 273.621094 196.304688 274.492188 195.082031 C 275.363281 193.863281 275.832031 192.398438 275.832031 190.898438 C 275.832031 189.398438 275.363281 187.933594 274.492188 186.710938 C 273.621094 185.492188 272.386719 184.574219 270.96875 184.089844 L 267.527344 183.53125 C 248.941406 180.492188 231.78125 171.6875 218.464844 158.363281 C 205.148438 145.039062 196.355469 127.863281 193.316406 109.261719 L 192.761719 105.816406 C 192.277344 104.398438 191.359375 103.164062 190.140625 102.292969 C 188.917969 101.417969 187.457031 100.949219 185.957031 100.949219 C 184.457031 100.949219 182.996094 101.417969 181.777344 102.292969 C 180.554688 103.164062 179.640625 104.398438 179.152344 105.816406 L 178.597656 109.261719 C 176.519531 121.992188 171.730469 134.125 164.558594 144.839844 C 157.382812 155.554688 147.988281 164.601562 137.011719 171.363281 C 121.699219 180.804688 103.058594 181.902344 85.066406 181.902344 L 6.425781 181.902344 C 11.128906 86.730469 89.703125 11.003906 185.957031 11.003906 Z M 185.957031 11.003906 " fill-opacity="1" fill-rule="nonzero"/><path fill="#5f6fff" d="M 6.214844 199.894531 L 85.066406 199.894531 C 103.058594 199.894531 121.699219 200.988281 137.015625 210.433594 C 148.984375 217.816406 159.0625 227.902344 166.4375 239.882812 C 175.875 255.210938 176.972656 273.863281 176.972656 291.871094 L 176.972656 370.789062 L 60.136719 370.789062 C 45.835938 370.789062 32.121094 365.105469 22.007812 354.984375 C 11.894531 344.863281 6.214844 331.136719 6.214844 316.824219 Z M 365.707031 28.996094 C 365.707031 33.765625 363.8125 38.339844 360.441406 41.714844 C 357.070312 45.089844 352.5 46.984375 347.730469 46.984375 C 342.964844 46.984375 338.390625 45.089844 335.019531 41.714844 C 331.648438 38.339844 329.757812 33.765625 329.757812 28.996094 C 329.757812 24.222656 331.648438 19.648438 335.019531 16.273438 C 338.390625 12.902344 342.964844 11.003906 347.730469 11.003906 C 352.5 11.003906 357.070312 12.902344 360.441406 16.273438 C 363.8125 19.648438 365.707031 24.222656 365.707031 28.996094 Z M 365.707031 28.996094 " fill-opacity="1" fill-rule="nonzero"/></g></svg>